<svg width="512" height="512" viewBox="0 0 1024 1024" xmlns="http://www.w3.org/2000/svg" preserveAspectRatio="xMidYMid meet"><svg x="25" y="228" width="973" height="570" xmlns="http://www.w3.org/2000/svg" preserveAspectRatio="none"><svg version="1.1" xmlns="http://www.w3.org/2000/svg" style="display: block;" width="973" height="570" viewBox="0.00 -0.73 2048.00 1199.01" preserveAspectRatio="none"><g id="svg-group-08fba4b1-f4ff-4dea-b74d-d9fb1d16b2b2">
<defs>
	<linearGradient id="Gradient1" gradientUnits="userSpaceOnUse" x1="690.143" y1="664.064" x2="687.258" y2="672.737">
		<stop class="stop0" offset="0" stop-opacity="1" stop-color="rgba(143, 151, 148, 1)"/>
		<stop class="stop1" offset="1" stop-opacity="1" stop-color="rgba(168, 172, 177, 1)"/>
	</linearGradient>
</defs>
<path transform="translate(0,0)" fill="rgba(0, 0, 0, 1)" d="M 556.439 0 L 648.539 0 C 650.038 1.66797 651.662 3.24594 654.011 3.42426 C 695.824 6.59821 737.643 12.794 778.128 24.3911 C 871.164 50.143 956.387 98.5043 1026.21 165.168 C 1121.47 256.555 1182.42 386.451 1202.4 516.295 C 1203.12 520.947 1204.8 535.725 1207.99 538.43 C 1213.13 537.877 1217.41 535.346 1222.29 533.8 C 1244.45 526.772 1266.73 520.186 1289.38 514.885 C 1296.32 513.261 1304.41 511.61 1310.92 508.821 L 1310.9 255.904 C 1310.91 221.155 1311.61 185.618 1309.91 150.903 C 1309.35 139.562 1309.7 127.555 1307.78 116.614 C 1298.11 61.2582 1259.86 33.031 1204.81 32.6421 C 1199.07 32.6016 1193.08 31.6385 1189.82 26.382 C 1190.09 23.6601 1190.59 20.641 1193.08 19.3209 C 1200.43 15.4323 1220.32 16.9515 1228.28 16.9644 L 1291.14 17.0222 L 1559.83 17.045 L 1623.36 17.0222 C 1634.41 17.0059 1645.35 16.6979 1656.36 17.6997 C 1663.38 17.3833 1662.92 30.6982 1658.52 32.1473 C 1652.09 34.2652 1641.5 34.2194 1634.5 34.6608 C 1579.29 38.143 1552.7 82.5843 1548.67 133.155 C 1546.56 159.62 1546.99 184.872 1547 211.722 L 1547.02 315.882 L 1547.03 433.34 C 1547.04 452.278 1546.31 477.42 1547.38 495.991 C 1594.54 508.959 1630.17 522.936 1656.04 567.821 C 1698.18 640.927 1656.35 735.929 1585.33 772.746 C 1572.34 779.487 1560.53 784.07 1546.96 789.071 L 1547.03 1036.16 L 1547 1114.53 C 1546.99 1127.71 1546.47 1145.83 1547.36 1158.79 C 1586.62 1157.05 1627.44 1158.77 1666.43 1157.77 C 1833.56 1153.53 1991.92 1068.96 2026.21 893.443 C 2028.81 880.135 2031.12 865.636 2033.97 852.41 C 2035.1 847.199 2045.12 849.446 2048 850.17 L 2048 1171.82 C 2044.11 1176.12 2041.74 1177.83 2035.75 1177.85 C 2006.76 1177.97 1978.33 1176.36 1949.26 1176.43 L 1699.02 1176.47 L 1346.77 1176.35 L 1238.96 1176.31 C 1226.83 1176.31 1214.84 1176.28 1202.71 1176.8 C 1197.04 1177.04 1190.63 1173.91 1189 1168.13 C 1189.28 1166.35 1189.46 1164.48 1191.36 1163.53 C 1197.74 1161.16 1208.99 1161.58 1216 1161.17 C 1257.59 1158.74 1299.46 1134.26 1307.63 1090.46 C 1314.51 1053.58 1309.56 1007.19 1310.79 969.034 C 1311.1 959.488 1309.05 948.616 1309.33 938.927 C 1308.4 923.396 1311.13 857.53 1307.5 847.403 L 1305.25 845.125 C 1288.13 847.371 1145.69 898.491 1140.86 904.553 C 1134.67 912.339 1131.61 923.447 1126.4 932.1 C 1114.87 951.208 1100.64 968.754 1086.16 985.688 C 1060.78 1015.63 1032.25 1042.75 1001.05 1066.57 C 913.65 1132.93 800.298 1175.58 693.045 1190.29 C 685.387 1191.34 665.804 1192.21 660.786 1197 L 553.176 1197 C 548.865 1192.37 526.491 1191.42 519.04 1190.43 C 500.273 1187.93 481.65 1184.45 463.249 1180 C 219.609 1120.45 38.4428 929.165 6.71055 676.911 C 5.56585 667.812 5.58626 644.715 0 638.58 L 0 553.672 C 6.56431 549.319 5.12439 526.559 6.28401 517.786 C 8.50773 500.962 11.2671 484.838 14.8276 468.243 C 36.368 366.695 83.9011 272.478 152.776 194.81 C 227.121 112.417 339.312 48.3603 446.533 20.3183 C 472.437 13.7668 498.72 8.81826 525.233 5.50077 C 533.564 4.41135 551.235 5.17961 556.439 0 z M 729.33 651.438 C 777.048 660.567 840.578 655.785 887.896 647.631 C 887.649 609.806 879.327 551.342 872.857 513.423 C 851.833 390.206 817.486 265.419 749.601 159.18 C 733.741 134.359 706.82 103.523 684.826 83.1784 C 650.301 51.2411 607.23 31.1731 560.059 31.7237 C 554.597 31.7582 549.138 31.9618 543.689 32.3341 C 406.752 49.9782 365.513 228.629 380.612 344.232 C 392.4 428.9 437.427 505.387 505.739 556.78 C 556.77 595.868 611.86 623.021 673.88 639.308 C 691.436 643.918 711.288 649.521 729.33 651.438 z M 1623.13 706.117 C 1639.73 687.748 1646.25 667.361 1649.18 643.221 C 1640.7 641.66 1633.61 642.571 1625.21 642.647 C 1532.68 643.486 1440 650.16 1349.94 672.585 C 1302.04 684.513 1255.96 702.185 1209.58 719.203 C 1171.24 733.131 1132.78 746.737 1094.21 760.022 C 902.714 824.953 717.656 843.392 524.055 775.028 C 343.486 711.266 210.675 586.353 188.391 389.514 C 186.494 371.762 184.915 348.92 187.239 331.332 C 192.404 266.987 213.062 208.041 247.257 153.44 C 249.079 150.532 250.855 147.85 252.925 145.107 C 250.998 140.951 252.163 142.428 248.179 139.637 C 238.162 145.907 231.882 153.497 223.669 161.659 C 161.429 224.031 142.364 310.848 145.736 396.522 C 150.588 519.79 207.006 621.551 296.872 701.799 C 510.589 892.644 826.66 910.425 1090.37 828.514 C 1167.53 804.546 1246.24 774.508 1323.5 750.155 C 1412.81 722.792 1529.2 704.344 1623.13 706.117 z M 809.768 1138.62 C 813.241 1136.98 819.705 1134.48 823.34 1133.17 C 849.753 1123.62 864.66 1111.92 885.338 1093.44 C 932.449 1051.27 969.202 998.804 992.74 940.123 C 982.734 939.25 955.635 943.937 945.561 946.58 C 917.072 1004.41 891.258 1056.12 842.478 1099.09 C 831.437 1108.82 820.528 1122.3 808.726 1131.02 C 808.101 1134.43 807.349 1135.7 809.768 1138.62 z M 888.68 953.263 C 881.88 976.383 874.713 1000.71 865.395 1022.93 C 858.349 1039.73 849.512 1057.61 841.643 1074.17 L 844.542 1078.07 L 846.174 1078.51 C 852.257 1076.64 890.214 1028.07 894.405 1019.93 C 898.878 1011.24 931.156 957.312 929.508 951.198 C 923.334 948.148 896.287 952.318 888.68 953.263 z M 913.896 1084.74 L 920.016 1089.02 C 970.247 1065.57 1011.46 1015.93 1036.87 967.721 C 1041.66 958.622 1057.11 935.86 1051.84 927.02 C 1046.1 925.029 1014.87 932.61 1008.1 935.006 C 1004.08 944.281 998.947 953.655 994.593 962.839 C 976.863 1000.24 955.347 1036.46 928.383 1067.99 C 923.847 1073.3 918.311 1078.25 914.397 1083.99 L 913.896 1084.74 z M 1604.68 717.952 C 1524.95 719.197 1445.61 729.295 1368.11 748.062 C 1288.45 767.834 1212.02 799.631 1133.22 825.286 C 1042.92 854.711 950.384 877.285 855.489 884.707 C 546.611 908.863 149.81 745.877 132.559 391.817 C 130.364 346.766 143.491 268.12 163.972 227.776 L 158.17 224.953 C 122.213 264.69 102.818 316.031 98.5461 369.251 C 86.7182 516.592 148.072 648.217 256.88 746.635 C 293.161 780.037 333.386 808.885 376.661 832.536 C 387.516 838.532 404.4 845.571 416.161 851.043 C 513.338 896.557 618.07 923.776 725.111 931.339 C 752.201 933.382 776.966 932.713 803.826 933.235 C 874.651 934.611 945.694 926.332 1015 912.041 C 1122.78 889.816 1222.72 844.089 1328.55 814.86 C 1363.21 805.6 1398.23 797.722 1433.52 791.246 C 1489.95 780.974 1557.74 774.148 1601.51 733.714 C 1603.85 731.545 1606.05 727.774 1606.44 724.583 L 1604.68 717.952 z M 1034.54 995.634 C 1035.88 999.799 1034.81 998.433 1038.54 1000.74 C 1048.49 991.445 1113.6 926.223 1105.54 913.867 C 1102.55 912.6 1098.51 913.229 1095.43 914.057 C 1079.08 918.386 1075.05 916.219 1066.83 931.828 C 1056.43 951.592 1045.89 977.025 1034.54 995.634 z M 433.664 49.176 C 423.297 52.2969 401.36 59.25 392.552 65.6424 C 279.614 147.612 231.331 297.471 268.223 431.001 C 276.739 461.827 291.902 492.543 307.193 520.437 C 329.557 561.233 360.632 591.212 396.106 620.398 C 569.152 762.768 826.061 759.018 1029.78 694.286 C 1091.98 674.506 1149.77 650.003 1210.43 626.755 C 1337.63 577.098 1434.29 560.847 1571.41 560.572 C 1582.6 559.365 1602.22 559.721 1610.56 558.242 C 1611.45 556.352 1613.6 552.738 1612.01 550.956 C 1573.38 509.167 1498.63 510.038 1446.51 512.851 C 1361.03 517.463 1261.72 538.133 1183.38 572.56 C 1022.59 644.392 846.478 704.528 668.021 677.896 C 619.529 670.66 579.831 661.105 533.791 642.797 C 366.892 576.429 263.513 409.15 319.622 228.928 C 337.849 169.868 371.722 116.843 417.648 75.4778 C 423.641 69.9994 442.549 57.2268 440.715 50.8308 C 437.957 48.9101 437.088 49.1158 433.664 49.176 z M 396.114 117.525 C 397.97 114.634 400.903 110.756 401.311 107.546 L 400.493 106.801 C 398.603 109.488 395.34 113.487 394.832 116.503 L 396.114 117.525 z M 863.144 957.377 L 862.011 957.229 C 852.774 956.101 842.868 957.017 833.555 957.25 C 818.011 957.637 802.542 958.027 786.991 957.615 C 723.082 955.923 656.948 949.539 594.615 935.059 C 549.295 924.918 504.736 911.636 461.26 895.31 C 447.749 890.102 411.083 871.085 400.238 870.766 C 396.227 873.066 395.535 872.464 394.565 875.92 C 401.222 899.14 411.031 920.941 421.069 942.835 C 426.562 954.392 431.009 966.718 436.989 978.025 C 491.016 1080.16 580.207 1197.56 712.005 1162.31 C 741.03 1154.55 776.334 1127.69 793.782 1103.74 C 821.555 1068.73 855.891 1001.78 863.144 957.377 z M 379.884 133.597 C 272.18 274.556 304.555 472.806 442.986 579.343 C 495.764 619.961 565.855 651.585 631.792 662.138 C 639.475 663.363 648.389 665.178 656.001 663.224 L 656.385 660.421 C 651.816 655.9 631.429 649.772 624.235 646.974 C 606.875 640.156 589.743 632.774 572.865 624.837 C 386.052 535.792 308.128 353.718 378.406 158.491 C 381.518 149.847 389.531 138.657 379.884 133.597 z M 341.296 83.7784 C 332.323 87.799 320.504 93.0663 312.811 99.2408 C 271.51 132.39 235.459 185.191 218.309 235.049 C 174.677 361.898 207.132 514.413 296.543 614.034 C 304.108 622.445 312.835 630.297 320.766 638.147 C 372.706 690.445 435.191 731.079 504.06 757.344 C 536.058 769.456 572.933 781.713 606.625 788.813 C 733.026 815.452 862.502 811 987.837 780.95 C 1121.59 748.883 1244.65 686.316 1378.36 655.476 C 1442.6 640.658 1508.94 635.534 1574.56 631.277 C 1598.66 629.926 1624.39 632.032 1648.59 631.95 C 1650.29 605.226 1643.99 591.454 1629.11 569.66 C 1609.26 572.359 1575.86 570.816 1553.88 571.564 C 1477.94 574.148 1409.81 577.545 1335.93 596.346 C 1268.07 613.615 1208.9 637.829 1144.15 662.972 C 1104.25 678.594 1063.91 693.069 1023.17 706.38 C 941.471 732.744 836.789 751.887 751.001 749.617 C 628.48 746.375 491.474 709.475 393.523 634.002 C 317.34 575.302 261.035 483.646 247.294 388.34 C 233.73 294.941 262.329 198.729 317.832 123.117 C 321.27 118.434 342.45 91.9038 345.61 89.6912 C 344.707 85.3882 344.734 85.9787 341.296 83.7784 z"/>
<path transform="translate(0,0)" fill="url(#Gradient1)" d="M 658.563 658.781 C 664.329 660.384 722.465 673.708 722.928 674.218 C 712.318 674.074 666.399 669.778 657.684 666.291 C 656.78 662.839 657.501 662.531 658.563 658.781 z"/>
<path transform="translate(0,0)" fill="rgba(188, 193, 197, 1)" d="M 886.544 1107.54 C 891.016 1103.94 911.053 1085.31 913.896 1084.74 L 920.016 1089.02 L 920.103 1089.73 C 908.703 1096.64 898.468 1101.64 886.544 1107.54 z"/>
<path transform="translate(0,0)" fill="rgba(188, 193, 197, 1)" d="M 248.179 139.637 L 246.887 139.254 C 250.817 134.793 269.25 121.892 274.515 118.609 C 271.989 121.739 254.673 144.038 252.925 145.107 C 250.998 140.951 252.163 142.428 248.179 139.637 z"/>
<path transform="translate(0,0)" fill="rgba(188, 193, 197, 1)" d="M 1014.45 1024.42 C 1021.38 1014.49 1027.28 1006.15 1033.27 995.559 L 1034.54 995.634 C 1035.88 999.799 1034.81 998.433 1038.54 1000.74 L 1039.68 1000.82 C 1038.92 1003.44 1018.01 1021.28 1014.45 1024.42 z"/>
<path transform="translate(0,0)" fill="rgba(74, 78, 88, 1)" d="M 187.239 331.332 L 188.617 331.939 C 189.662 347.743 188.502 363.603 189.431 379.41 C 189.611 382.476 189.815 385.508 189.734 388.582 C 189.001 389.251 189.023 389.513 188.391 389.514 C 186.494 371.762 184.915 348.92 187.239 331.332 z"/>
<path transform="translate(0,0)" fill="rgba(150, 154, 158, 1)" d="M 158.17 224.953 C 161.322 219.017 175.751 203.585 180.916 198.409 C 178.359 202.673 165.767 225.833 163.972 227.776 L 158.17 224.953 z"/>
<path transform="translate(0,0)" fill="rgba(150, 154, 158, 1)" d="M 341.296 83.7784 C 348.371 78.9212 363.411 72.4099 371.386 68.9198 C 366.834 72.4107 348.475 88.6303 345.863 89.758 L 345.61 89.6912 C 344.707 85.3882 344.734 85.9787 341.296 83.7784 z"/>
<path transform="translate(0,0)" fill="rgba(150, 154, 158, 1)" d="M 825.25 1102.67 C 828.15 1096.99 837.508 1078.21 841.643 1074.17 L 844.542 1078.07 C 846.286 1082.31 829.191 1097.84 825.25 1102.67 z"/>
<path transform="translate(0,0)" fill="rgba(150, 154, 158, 1)" d="M 783.752 1149.77 C 789.282 1145.75 804.069 1133.51 808.726 1131.02 C 808.101 1134.43 807.349 1135.7 809.768 1138.62 L 809.344 1139.59 C 801.302 1143.62 792.246 1146.69 783.752 1149.77 z"/>
<path transform="translate(0,0)" fill="rgba(31, 33, 37, 1)" fill-opacity="0.984314" d="M 400.493 106.801 L 401.311 107.546 C 400.903 110.756 397.97 114.634 396.114 117.525 L 394.832 116.503 C 395.34 113.487 398.603 109.488 400.493 106.801 z"/>
</g></svg></svg></svg>